<svg width="30" height="30" viewBox="0 0 30 30" fill="none" xmlns="http://www.w3.org/2000/svg">
<circle cx="15" cy="15" r="15" transform="rotate(90 15 15)" fill="#5F7BF7"/>
<path d="M15 15.8333C17.3012 15.8333 19.1667 13.9679 19.1667 11.6667C19.1667 9.36548 17.3012 7.5 15 7.5C12.6988 7.5 10.8333 9.36548 10.8333 11.6667C10.8333 13.9679 12.6988 15.8333 15 15.8333Z" fill="white" stroke="white" stroke-width="3" stroke-linecap="round" stroke-linejoin="round"/>
<path d="M21.6667 22.5C21.6667 20.7319 20.9643 19.0362 19.714 17.786C18.4638 16.5357 16.7681 15.8333 15 15.8333C13.2319 15.8333 11.5362 16.5357 10.2859 17.786C9.03571 19.0362 8.33333 20.7319 8.33333 22.5" fill="white"/>
<path d="M21.6667 22.5C21.6667 20.7319 20.9643 19.0362 19.714 17.786C18.4638 16.5357 16.7681 15.8333 15 15.8333C13.2319 15.8333 11.5362 16.5357 10.2859 17.786C9.03571 19.0362 8.33333 20.7319 8.33333 22.5" stroke="white" stroke-width="3" stroke-linecap="round" stroke-linejoin="round"/>
</svg>
