<svg width="30" height="30" viewBox="0 0 30 30" fill="none" xmlns="http://www.w3.org/2000/svg">
<circle cx="15" cy="15" r="15" transform="rotate(90 15 15)" fill="#5BBD82"/>
<path d="M16.5267 18.8067C16.6988 18.8857 16.8927 18.9038 17.0764 18.8579C17.2602 18.812 17.4228 18.7049 17.5375 18.5542L17.8333 18.1667C17.9886 17.9597 18.1899 17.7917 18.4213 17.676C18.6527 17.5602 18.9079 17.5 19.1667 17.5H21.6667C22.1087 17.5 22.5326 17.6756 22.8452 17.9882C23.1577 18.3007 23.3333 18.7246 23.3333 19.1667V21.6667C23.3333 22.1087 23.1577 22.5326 22.8452 22.8452C22.5326 23.1577 22.1087 23.3333 21.6667 23.3333C17.6884 23.3333 13.8731 21.753 11.0601 18.9399C8.24702 16.1269 6.66667 12.3116 6.66667 8.33333C6.66667 7.8913 6.84226 7.46738 7.15482 7.15482C7.46738 6.84226 7.89131 6.66666 8.33333 6.66666H10.8333C11.2754 6.66666 11.6993 6.84226 12.0118 7.15482C12.3244 7.46738 12.5 7.8913 12.5 8.33333V10.8333C12.5 11.0921 12.4398 11.3473 12.324 11.5787C12.2083 11.8101 12.0403 12.0114 11.8333 12.1667L11.4433 12.4592C11.2903 12.576 11.1825 12.7422 11.1382 12.9295C11.0938 13.1168 11.1157 13.3136 11.2 13.4867C12.3389 15.7999 14.212 17.6707 16.5267 18.8067Z" stroke="white" stroke-width="2" stroke-linecap="round" stroke-linejoin="round"/>
</svg>
