<svg width="30" height="30" viewBox="0 0 30 30" fill="none" xmlns="http://www.w3.org/2000/svg">
<circle cx="15" cy="15" r="15" transform="rotate(90 15 15)" fill="#EAC943"/>
<path d="M22.5 19.1667C22.5 18.7246 22.3244 18.3007 22.0118 17.9882C21.6993 17.6756 21.2754 17.5 20.8333 17.5H9.16667C8.72464 17.5 8.30072 17.6756 7.98816 17.9882C7.67559 18.3007 7.5 18.7246 7.5 19.1667V20.8333C7.5 21.2754 7.67559 21.6993 7.98816 22.0118C8.30072 22.3244 8.72464 22.5 9.16667 22.5H20.8333C21.2754 22.5 21.6993 22.3244 22.0118 22.0118C22.3244 21.6993 22.5 21.2754 22.5 20.8333V19.1667Z" stroke="white" stroke-width="2" stroke-linecap="round" stroke-linejoin="round"/>
<path d="M10 17.5V15.8333" stroke="white" stroke-width="2" stroke-linecap="round" stroke-linejoin="round"/>
<path d="M15 17.5V12.5" stroke="white" stroke-width="2" stroke-linecap="round" stroke-linejoin="round"/>
<path d="M15 12.5C16.3807 12.5 17.5 11.3807 17.5 10C17.5 8.61929 16.3807 7.5 15 7.5C13.6193 7.5 12.5 8.61929 12.5 10C12.5 11.3807 13.6193 12.5 15 12.5Z" stroke="white" stroke-width="2" stroke-linecap="round" stroke-linejoin="round"/>
</svg>
