<svg width="30" height="30" viewBox="0 0 30 30" fill="none" xmlns="http://www.w3.org/2000/svg">
<circle cx="15" cy="15" r="15" transform="rotate(90 15 15)" fill="#EB564F"/>
<path d="M6.66667 12.9167C6.66668 11.9893 6.94799 11.0838 7.47344 10.3197C7.99889 9.55562 8.74376 8.96888 9.60967 8.637C10.4756 8.30512 11.4218 8.2437 12.3233 8.46087C13.2249 8.67804 14.0394 9.16357 14.6592 9.85333C14.7028 9.90001 14.7556 9.93722 14.8142 9.96267C14.8729 9.98811 14.9361 10.0012 15 10.0012C15.0639 10.0012 15.1271 9.98811 15.1858 9.96267C15.2444 9.93722 15.2972 9.90001 15.3408 9.85333C15.9587 9.15908 16.7734 8.66947 17.6764 8.44967C18.5794 8.22986 19.5279 8.29029 20.3957 8.6229C21.2635 8.95552 22.0095 9.54454 22.5343 10.3116C23.059 11.0786 23.3378 11.9873 23.3333 12.9167C23.3333 14.825 22.0833 16.25 20.8333 17.5L16.2567 21.9275C16.1014 22.1058 15.9099 22.2491 15.695 22.3478C15.4801 22.4464 15.2467 22.4982 15.0102 22.4997C14.7738 22.5012 14.5397 22.4524 14.3236 22.3564C14.1074 22.2605 13.9142 22.1197 13.7567 21.9433L9.16667 17.5C7.91667 16.25 6.66667 14.8333 6.66667 12.9167Z" fill="white" stroke="white" stroke-width="3" stroke-linecap="round" stroke-linejoin="round"/>
</svg>
