<svg width="30" height="30" viewBox="0 0 30 30" fill="none" xmlns="http://www.w3.org/2000/svg">
<circle cx="15" cy="15" r="15" transform="rotate(90 15 15)" fill="#EAC943"/>
<path d="M17.5 16.6667C17.6667 15.8333 18.0833 15.25 18.75 14.5833C19.5833 13.8333 20 12.75 20 11.6667C20 10.3406 19.4732 9.06881 18.5355 8.13113C17.5979 7.19345 16.3261 6.66666 15 6.66666C13.6739 6.66666 12.4021 7.19345 11.4645 8.13113C10.5268 9.06881 10 10.3406 10 11.6667C10 12.5 10.1667 13.5 11.25 14.5833C11.8333 15.1667 12.3333 15.8333 12.5 16.6667" stroke="white" stroke-width="2" stroke-linecap="round" stroke-linejoin="round"/>
<path d="M12.5 20H17.5" stroke="white" stroke-width="2" stroke-linecap="round" stroke-linejoin="round"/>
<path d="M13.3333 23.3333H16.6667" stroke="white" stroke-width="2" stroke-linecap="round" stroke-linejoin="round"/>
</svg>
