<svg width="30" height="30" viewBox="0 0 30 30" fill="none" xmlns="http://www.w3.org/2000/svg">
<circle cx="15" cy="15" r="15" transform="rotate(90 15 15)" fill="#5F7BF7"/>
<path d="M19.8333 21L18.3333 14.1667L21.25 11.25C22.5 10 22.9167 8.33333 22.5 7.5C21.6667 7.08333 20 7.5 18.75 8.75L15.8333 11.6667L9 10.1667C8.58333 10.0833 8.25 10.25 8.08333 10.5833L7.83333 11C7.66667 11.4167 7.75 11.8333 8.08333 12.0833L12.5 15L10.8333 17.5H8.33333L7.5 18.3333L10 20L11.6667 22.5L12.5 21.6667V19.1667L15 17.5L17.9167 21.9167C18.1667 22.25 18.5833 22.3333 19 22.1667L19.4167 22C19.75 21.75 19.9167 21.4167 19.8333 21Z" fill="white" stroke="white" stroke-width="0.5" stroke-linecap="round" stroke-linejoin="round"/>
</svg>
