<svg width="30" height="30" viewBox="0 0 30 30" fill="none" xmlns="http://www.w3.org/2000/svg">
<circle cx="15" cy="15" r="15" transform="rotate(90 15 15)" fill="#EB564F"/>
<path d="M16.4883 7.155C16.1758 6.84242 15.752 6.66676 15.31 6.66667H9.33333C8.8913 6.66667 8.46738 6.84226 8.15482 7.15482C7.84226 7.46738 7.66666 7.89131 7.66666 8.33333V14.31C7.66676 14.752 7.84242 15.1758 8.155 15.4883L15.4083 22.7417C15.7871 23.118 16.2994 23.3293 16.8333 23.3293C17.3673 23.3293 17.8796 23.118 18.2583 22.7417L23.7417 17.2583C24.118 16.8796 24.3293 16.3673 24.3293 15.8333C24.3293 15.2994 24.118 14.7871 23.7417 14.4083L16.4883 7.155Z" stroke="white" stroke-width="3" stroke-linecap="round" stroke-linejoin="round"/>
<path d="M12.25 11.6667C12.4801 11.6667 12.6667 11.4801 12.6667 11.25C12.6667 11.0199 12.4801 10.8333 12.25 10.8333C12.0199 10.8333 11.8333 11.0199 11.8333 11.25C11.8333 11.4801 12.0199 11.6667 12.25 11.6667Z" fill="white" stroke="white" stroke-width="3" stroke-linecap="round" stroke-linejoin="round"/>
</svg>
