<svg width="30" height="30" viewBox="0 0 30 30" fill="none" xmlns="http://www.w3.org/2000/svg">
<circle cx="15" cy="15" r="15" transform="rotate(90 15 15)" fill="#EB564F"/>
<path d="M17.5 8.9L16.6667 12.3333H21.525C21.7837 12.3333 22.0389 12.3936 22.2704 12.5093C22.5018 12.625 22.7031 12.793 22.8583 13C23.0136 13.207 23.1185 13.4473 23.1648 13.7019C23.2111 13.9564 23.1974 14.2183 23.125 14.4667L21.1833 21.1333C21.0824 21.4795 20.8718 21.7836 20.5833 22C20.2948 22.2164 19.944 22.3333 19.5833 22.3333H8.33333C7.89131 22.3333 7.46738 22.1577 7.15482 21.8452C6.84226 21.5326 6.66667 21.1087 6.66667 20.6667V14C6.66667 13.558 6.84226 13.134 7.15482 12.8215C7.46738 12.5089 7.89131 12.3333 8.33333 12.3333H10.6333C10.9434 12.3332 11.2473 12.2465 11.5108 12.0831C11.7743 11.9197 11.987 11.686 12.125 11.4083L15 5.66667C15.393 5.67153 15.7798 5.76514 16.1315 5.9405C16.4832 6.11585 16.7908 6.36842 17.0312 6.67934C17.2716 6.99025 17.4386 7.35147 17.5198 7.736C17.601 8.12054 17.5942 8.51845 17.5 8.9Z" stroke="white" stroke-width="2" stroke-linecap="round" stroke-linejoin="round"/>
<path d="M10.8333 12.3333V22.3333" stroke="white" stroke-width="2" stroke-linecap="round" stroke-linejoin="round"/>
</svg>
