<svg width="30" height="30" viewBox="0 0 30 30" fill="none" xmlns="http://www.w3.org/2000/svg">
<circle cx="15" cy="15" r="15" transform="rotate(90 15 15)" fill="#5F7BF7"/>
<path d="M12.5 20.1L13.3333 16.6667H8.475C8.21626 16.6667 7.96107 16.6064 7.72964 16.4907C7.49822 16.375 7.29691 16.207 7.14167 16C6.98642 15.793 6.8815 15.5527 6.83522 15.2981C6.78893 15.0436 6.80255 14.7817 6.875 14.5333L8.81667 7.86667C8.91764 7.52048 9.12817 7.21638 9.41667 7.00001C9.70516 6.78363 10.056 6.66667 10.4167 6.66667H21.6667C22.1087 6.66667 22.5326 6.84227 22.8452 7.15483C23.1577 7.46739 23.3333 7.89131 23.3333 8.33334V15C23.3333 15.442 23.1577 15.866 22.8452 16.1785C22.5326 16.4911 22.1087 16.6667 21.6667 16.6667H19.3667C19.0566 16.6668 18.7527 16.7535 18.4892 16.9169C18.2257 17.0803 18.013 17.314 17.875 17.5917L15 23.3333C14.607 23.3285 14.2202 23.2349 13.8685 23.0595C13.5168 22.8842 13.2092 22.6316 12.9688 22.3207C12.7284 22.0098 12.5614 21.6485 12.4802 21.264C12.399 20.8795 12.4058 20.4816 12.5 20.1Z" stroke="white" stroke-width="2" stroke-linecap="round" stroke-linejoin="round"/>
<path d="M19.1667 16.6667V6.66667" stroke="white" stroke-width="2" stroke-linecap="round" stroke-linejoin="round"/>
</svg>
