<svg width="30" height="30" viewBox="0 0 30 30" fill="none" xmlns="http://www.w3.org/2000/svg">
<circle cx="15" cy="15" r="15" transform="rotate(90 15 15)" fill="#5F7BF7"/>
<path d="M8.33333 16.6667C8.17564 16.6672 8.02103 16.623 7.88746 16.5391C7.7539 16.4553 7.64686 16.3353 7.57879 16.193C7.51072 16.0508 7.48441 15.8921 7.50292 15.7355C7.52142 15.5789 7.58398 15.4308 7.68333 15.3083L15.9333 6.80833C15.9952 6.73689 16.0795 6.68862 16.1725 6.67144C16.2654 6.65425 16.3614 6.66917 16.4448 6.71375C16.5281 6.75832 16.5938 6.82991 16.6311 6.91675C16.6684 7.00359 16.6751 7.10053 16.65 7.19166L15.05 12.2083C15.0028 12.3346 14.987 12.4704 15.0038 12.6042C15.0207 12.7379 15.0697 12.8656 15.1467 12.9762C15.2238 13.0868 15.3265 13.1771 15.4461 13.2393C15.5656 13.3015 15.6985 13.3338 15.8333 13.3333H21.6667C21.8244 13.3328 21.979 13.377 22.1125 13.4608C22.2461 13.5447 22.3531 13.6647 22.4212 13.8069C22.4893 13.9492 22.5156 14.1078 22.4971 14.2644C22.4786 14.4211 22.416 14.5692 22.3167 14.6917L14.0667 23.1917C14.0048 23.2631 13.9205 23.3114 13.8275 23.3285C13.7346 23.3457 13.6386 23.3308 13.5552 23.2862C13.4719 23.2417 13.4062 23.1701 13.3689 23.0832C13.3316 22.9964 13.3249 22.8995 13.35 22.8083L14.95 17.7917C14.9972 17.6654 15.013 17.5296 14.9962 17.3958C14.9793 17.2621 14.9303 17.1344 14.8533 17.0238C14.7762 16.9132 14.6735 16.8229 14.5539 16.7607C14.4344 16.6985 14.3015 16.6662 14.1667 16.6667H8.33333Z" fill="white" stroke="white" stroke-linecap="round" stroke-linejoin="round"/>
</svg>
