<?xml version="1.0" encoding="UTF-8" standalone="no"?>
<!DOCTYPE svg PUBLIC "-//W3C//DTD SVG 1.1//EN" "http://www.w3.org/Graphics/SVG/1.1/DTD/svg11.dtd">
<svg xmlns="http://www.w3.org/2000/svg" version="1.1" viewBox="0.00 0.00 1900.00 878.00">
<path fill="#241e20" fill-opacity="0.980" d="
  M 1842.26 276.46
  L 1841.04 277.17
  A 0.23 0.22 -65.1 0 0 1841.19 277.59
  L 1843.80 277.09
  A 0.06 0.06 0.0 0 1 1843.87 277.16
  Q 1843.86 277.25 1843.63 277.35
  Q 1842.83 277.70 1838.41 279.35
  A 1.22 1.18 47.1 0 1 1837.44 279.30
  Q 1832.04 276.63 1825.79 278.40
  A 0.17 0.16 76.5 0 0 1825.68 278.59
  L 1825.68 278.60
  A 0.19 0.18 -11.9 0 0 1825.89 278.73
  Q 1831.51 277.72 1836.15 280.11
  A 0.87 0.86 -77.7 0 1 1836.62 280.85
  Q 1836.72 283.18 1838.77 283.37
  Q 1848.12 284.23 1854.38 286.92
  A 0.49 0.48 -55.9 0 1 1854.53 287.71
  L 1854.09 288.15
  A 2.49 2.43 -72.3 0 1 1852.81 288.83
  Q 1851.99 288.98 1851.60 287.93
  A 0.88 0.84 5.3 0 0 1851.19 287.46
  Q 1850.44 287.05 1849.18 287.29
  A 0.64 0.64 0.0 0 0 1848.68 288.09
  Q 1849.00 289.26 1849.72 290.16
  A 0.56 0.56 0.0 0 1 1849.02 291.01
  Q 1848.87 290.93 1846.89 290.06
  Q 1846.22 289.76 1845.57 289.90
  Q 1844.81 290.06 1844.41 289.48
  A 0.55 0.53 -1.4 0 0 1844.19 289.28
  Q 1842.91 288.63 1842.48 289.27
  A 0.38 0.38 0.0 0 1 1841.91 289.34
  L 1841.82 289.26
  A 0.11 0.09 50.7 0 0 1841.72 289.24
  Q 1841.07 289.49 1839.81 289.16
  A 0.28 0.28 0.0 0 0 1839.50 289.58
  Q 1839.80 290.07 1838.61 290.42
  A 0.54 0.54 0.0 0 0 1838.29 291.21
  L 1838.78 292.06
  A 0.65 0.65 0.0 0 0 1839.65 292.31
  Q 1840.28 291.97 1840.70 291.55
  A 0.14 0.14 0.0 0 1 1840.91 291.56
  A 0.17 0.16 -34.9 0 1 1840.87 291.77
  L 1839.92 292.51
  A 0.67 0.67 0.0 0 0 1839.71 293.28
  Q 1840.05 294.15 1841.02 294.08
  A 0.30 0.29 25.8 0 1 1841.21 294.62
  Q 1840.94 294.79 1840.21 294.67
  Q 1835.19 293.82 1831.42 294.61
  A 1.63 1.63 0.0 0 0 1830.64 297.40
  Q 1831.51 298.22 1832.21 298.59
  C 1841.33 303.37 1846.23 305.48 1849.56 308.46
  A 0.48 0.48 0.0 0 1 1849.24 309.30
  L 1843.65 309.30
  A 0.86 0.85 -22.4 0 0 1843.04 310.76
  L 1844.25 311.97
  A 3.56 3.53 -16.7 0 0 1846.07 312.94
  Q 1849.73 313.67 1855.79 313.76
  C 1857.24 313.78 1859.38 314.32 1860.49 315.22
  A 1.12 1.11 35.4 0 1 1860.74 316.67
  C 1858.83 319.75 1854.56 318.60 1851.18 318.78
  C 1849.29 318.88 1847.84 318.77 1846.54 320.33
  A 1.09 1.09 0.0 0 0 1847.26 322.10
  Q 1848.75 322.26 1849.68 322.68
  A 3.69 3.63 60.4 0 0 1850.70 322.97
  Q 1858.60 324.04 1867.86 326.91
  C 1870.44 327.71 1873.23 328.43 1875.95 329.84
  A 0.45 0.45 0.0 0 1 1875.94 330.65
  L 1869.24 333.87
  A 1.03 1.03 0.0 0 0 1868.93 335.50
  C 1871.03 337.76 1873.28 338.73 1876.63 340.35
  Q 1877.73 340.88 1879.21 342.88
  A 1.29 1.26 34.7 0 1 1879.42 343.97
  C 1878.29 348.08 1875.09 348.10 1871.54 348.27
  Q 1870.78 348.31 1870.08 348.83
  A 1.71 1.71 0.0 0 0 1869.90 351.40
  L 1873.26 354.76
  A 4.12 4.06 -73.7 0 1 1874.37 356.82
  C 1875.27 361.12 1875.02 364.34 1871.35 367.11
  Q 1867.46 370.05 1864.98 372.43
  A 1.42 1.41 -51.9 0 0 1865.25 374.68
  L 1871.54 378.31
  A 1.84 1.84 0.0 0 1 1872.10 380.99
  Q 1870.19 383.62 1866.57 384.34
  Q 1861.08 385.45 1857.58 386.60
  A 0.75 0.75 0.0 0 0 1857.85 388.06
  C 1861.27 387.88 1867.80 387.62 1870.23 389.94
  A 1.44 1.43 -68.5 0 1 1870.66 390.94
  C 1870.68 396.85 1865.50 398.51 1860.57 397.84
  C 1856.43 397.28 1845.86 395.38 1838.13 394.74
  Q 1831.44 394.19 1824.48 391.36
  C 1821.59 390.19 1817.58 395.04 1815.05 397.79
  A 0.52 0.51 61.5 0 0 1814.92 398.24
  Q 1815.00 398.68 1815.04 398.73
  A 0.32 0.32 0.0 0 0 1815.60 398.53
  Q 1815.60 398.44 1815.42 398.24
  A 0.04 0.04 0.0 0 1 1815.47 398.18
  Q 1819.43 400.18 1822.20 401.35
  Q 1825.25 402.64 1826.41 404.94
  A 1.10 1.10 0.0 0 1 1826.39 405.95
  C 1824.61 409.13 1820.72 408.63 1817.59 407.95
  A 1.03 1.03 0.0 0 0 1816.41 408.57
  L 1816.40 408.61
  A 0.81 0.80 19.7 0 0 1816.91 409.68
  Q 1822.61 411.44 1828.63 414.88
  Q 1830.37 415.88 1831.14 417.25
  A 1.41 1.39 -52.9 0 1 1831.28 418.29
  Q 1829.61 424.85 1829.20 427.45
  C 1828.69 430.65 1831.43 432.50 1830.29 435.54
  C 1828.89 439.28 1828.51 441.97 1832.16 444.83
  Q 1833.49 445.88 1834.07 448.24
  A 1.42 1.33 -46.1 0 1 1834.06 448.95
  L 1833.05 452.58
  A 3.83 3.80 -41.1 0 0 1832.94 454.10
  Q 1833.28 456.64 1834.13 458.88
  Q 1836.59 465.40 1839.46 474.22
  A 0.25 0.12 52.0 0 1 1839.48 474.31
  L 1840.63 484.14
  A 2.29 2.27 64.2 0 1 1839.98 486.02
  L 1837.69 488.31
  A 2.01 1.99 54.9 0 0 1837.30 490.60
  L 1839.19 494.53
  A 2.34 2.33 -37.2 0 1 1838.83 497.10
  C 1834.91 501.52 1837.99 506.78 1840.01 511.75
  Q 1840.26 512.36 1840.10 516.00
  A 2.70 2.56 -32.7 0 1 1839.85 517.02
  L 1837.57 521.93
  A 1.67 1.67 0.0 0 0 1838.25 524.07
  L 1843.23 526.94
  A 2.95 2.92 -78.9 0 1 1844.67 529.10
  Q 1845.25 533.46 1847.95 536.51
  A 1.64 1.64 0.0 0 1 1847.52 539.03
  Q 1843.19 541.40 1841.01 544.33
  A 1.64 1.63 -54.2 0 0 1841.38 546.64
  Q 1844.00 548.45 1847.42 550.23
  Q 1848.40 550.74 1848.16 551.68
  Q 1847.77 553.15 1845.88 553.65
  Q 1843.21 554.36 1839.91 555.40
  A 1.00 0.99 67.6 0 0 1839.33 556.81
  Q 1841.33 560.63 1840.46 565.19
  A 1.58 1.58 0.0 0 1 1839.86 566.14
  L 1834.94 569.68
  A 0.68 0.67 49.8 0 0 1834.86 570.71
  L 1839.57 575.42
  A 1.20 1.19 43.4 0 1 1839.62 577.06
  C 1837.29 579.70 1833.68 581.72 1831.58 584.07
  Q 1829.00 586.95 1826.08 590.73
  A 2.30 2.29 -39.1 0 0 1825.83 593.12
  L 1827.19 595.94
  A 1.47 1.45 -43.7 0 1 1827.15 597.27
  Q 1825.78 599.75 1823.56 601.39
  A 1.16 1.15 44.0 0 0 1823.60 603.27
  Q 1825.20 604.37 1826.70 606.88
  A 0.92 0.92 0.0 0 1 1826.72 607.79
  Q 1825.61 609.81 1824.33 610.58
  Q 1817.74 614.55 1808.94 616.41
  Q 1802.90 617.68 1790.47 619.94
  Q 1787.20 620.53 1785.52 621.58
  A 0.39 0.38 -41.6 0 0 1785.48 622.21
  C 1788.21 624.42 1794.88 625.44 1797.28 625.78
  C 1801.40 626.37 1805.70 628.27 1808.83 630.54
  A 1.28 1.28 0.0 0 1 1809.14 632.30
  Q 1807.52 634.69 1804.98 635.91
  Q 1803.27 636.73 1803.17 637.28
  C 1802.71 639.85 1806.15 640.77 1807.77 642.05
  A 2.16 2.14 25.6 0 1 1808.54 644.20
  L 1807.05 651.02
  A 4.10 4.08 28.8 0 0 1808.15 654.77
  L 1810.45 657.07
  A 0.94 0.94 0.0 0 1 1810.50 658.36
  Q 1807.17 662.19 1804.96 666.87
  A 0.79 0.78 35.5 0 0 1805.11 667.75
  L 1809.94 672.58
  A 3.35 3.32 -73.0 0 1 1810.86 674.33
  Q 1812.11 681.26 1807.57 686.04
  A 0.95 0.95 0.0 0 0 1807.79 687.52
  L 1813.20 690.64
  A 1.28 1.27 -57.9 0 1 1813.61 692.45
  Q 1811.54 695.54 1807.80 698.97
  A 2.56 2.33 87.3 0 0 1807.51 699.32
  L 1806.18 701.25
  A 1.58 1.57 -57.7 0 0 1806.68 703.50
  L 1811.40 706.22
  A 1.93 1.92 31.1 0 1 1812.07 708.91
  C 1810.67 711.15 1811.15 713.93 1809.12 715.53
  A 0.84 0.84 0.0 0 0 1809.18 716.89
  L 1814.15 720.21
  A 1.43 1.35 87.4 0 1 1814.51 720.56
  C 1816.16 722.98 1817.12 724.49 1814.79 726.99
  Q 1813.85 728.00 1811.90 728.59
  Q 1797.60 732.89 1793.23 733.48
  Q 1781.75 735.03 1774.15 736.34
  A 1.22 1.20 54.7 0 1 1773.32 736.19
  L 1772.96 735.99
  A 0.34 0.34 0.0 0 0 1772.50 736.11
  L 1771.95 737.07
  A 0.89 0.89 0.0 0 0 1772.87 738.40
  L 1775.05 738.01
  A 4.46 4.21 -46.6 0 1 1775.93 737.96
  L 1791.08 738.83
  A 1.59 1.58 83.6 0 1 1792.52 739.98
  Q 1792.84 741.09 1792.21 743.16
  Q 1791.90 744.17 1789.81 744.86
  Q 1783.45 746.96 1780.19 747.37
  Q 1774.73 748.05 1770.37 749.20
  A 0.65 0.65 0.0 0 0 1770.23 750.40
  Q 1777.40 754.32 1781.61 757.38
  C 1783.25 758.58 1782.97 759.96 1782.12 761.68
  Q 1778.29 769.37 1777.01 774.36
  A 3.73 3.69 -15.7 0 1 1776.06 776.03
  L 1774.51 777.57
  A 0.57 0.57 0.0 0 0 1774.64 778.47
  C 1776.38 779.47 1779.97 782.02 1778.26 784.77
  Q 1778.09 785.04 1777.13 787.33
  A 3.22 3.10 -10.8 0 1 1776.33 788.46
  L 1772.03 792.32
  A 0.74 0.73 39.0 0 0 1772.16 793.50
  L 1776.11 795.78
  A 2.79 2.78 -60.0 0 1 1777.13 799.59
  L 1770.42 811.22
  A 0.97 0.97 0.0 0 0 1770.77 812.55
  L 1774.63 814.78
  A 1.07 1.07 0.0 0 1 1775.11 816.05
  Q 1774.23 818.60 1773.64 822.64
  C 1773.13 826.20 1771.39 827.57 1768.35 828.59
  Q 1763.76 830.12 1755.91 831.87
  Q 1747.45 833.74 1740.23 839.28
  Q 1736.49 842.14 1731.27 840.66
  Q 1712.06 835.21 1696.26 832.74
  Q 1687.40 831.36 1673.17 828.52
  Q 1643.57 822.62 1638.74 821.99
  Q 1620.73 819.66 1610.52 817.65
  Q 1597.14 815.01 1586.42 813.85
  Q 1583.17 813.50 1557.13 809.66
  Q 1541.58 807.37 1503.17 802.34
  C 1492.07 800.89 1477.94 799.91 1465.49 798.10
  Q 1465.22 798.07 1457.27 797.10
  Q 1453.41 796.63 1422.11 793.15
  Q 1406.74 791.44 1386.86 789.86
  C 1342.71 786.34 1308.63 783.55 1282.07 781.78
  Q 1218.07 777.49 1200.00 777.04
  C 1183.26 776.62 1170.46 775.73 1153.50 775.04
  C 1132.89 774.20 1109.71 772.42 1090.75 771.93
  Q 1072.37 771.46 1071.57 771.42
  C 1054.95 770.56 1038.91 771.00 1023.31 770.50
  Q 1009.83 770.07 994.20 770.01
  Q 981.10 769.96 935.00 769.39
  C 929.05 769.32 918.36 770.05 911.33 769.96
  C 900.61 769.84 890.75 770.81 880.24 770.82
  Q 818.14 770.93 749.48 774.19
  C 746.55 774.33 743.60 774.71 740.84 774.76
  Q 724.31 775.07 714.11 775.66
  Q 697.08 776.64 687.39 776.96
  C 663.41 777.75 633.43 779.01 604.75 781.24
  Q 564.57 784.37 528.05 787.22
  C 521.97 787.70 515.84 788.41 506.75 789.10
  Q 467.27 792.09 416.25 798.62
  Q 403.48 800.25 380.77 802.31
  C 369.95 803.30 358.76 805.19 347.30 806.66
  Q 326.65 809.31 315.30 810.88
  Q 300.53 812.92 295.71 813.52
  Q 280.72 815.40 269.12 817.66
  Q 258.49 819.72 249.79 820.85
  Q 242.06 821.84 230.39 823.70
  Q 206.19 827.56 144.56 839.63
  Q 137.58 841.00 137.37 841.02
  C 132.71 841.39 129.74 838.70 125.90 834.97
  C 124.59 833.70 120.06 832.33 117.46 831.82
  Q 106.67 829.68 98.68 827.33
  A 2.85 2.85 0.0 0 1 96.64 824.42
  Q 96.90 820.29 95.34 817.18
  A 1.27 1.27 0.0 0 1 95.47 815.82
  Q 97.07 813.78 99.80 812.43
  A 1.10 1.10 0.0 0 0 99.97 810.55
  L 98.05 809.15
  A 1.21 1.18 -84.4 0 1 97.66 808.66
  Q 95.98 804.85 94.31 801.95
  C 93.06 799.78 91.32 795.14 95.47 794.56
  Q 96.34 794.44 99.46 794.30
  A 0.49 0.49 0.0 0 0 99.68 793.38
  Q 94.22 790.26 91.38 783.93
  A 1.44 1.40 -42.6 0 1 91.45 782.63
  L 93.87 778.45
  A 1.17 1.16 53.6 0 0 93.99 777.62
  Q 92.78 772.17 90.20 768.37
  A 5.30 5.28 21.5 0 1 89.46 766.68
  C 88.29 761.61 85.65 757.07 92.44 754.40
  Q 97.61 752.37 100.20 750.75
  A 0.82 0.82 0.0 0 0 100.11 749.30
  Q 97.70 748.21 95.01 747.95
  C 90.16 747.48 78.84 745.93 76.30 741.73
  A 1.07 1.06 58.0 0 1 76.63 740.28
  Q 78.78 738.88 81.49 738.87
  Q 87.17 738.86 94.74 739.04
  Q 97.62 739.11 99.90 737.96
  A 0.77 0.77 0.0 0 0 99.83 736.55
  Q 97.59 735.68 94.52 735.21
  C 88.64 734.30 84.00 734.25 78.37 733.12
  Q 74.78 732.40 62.19 730.61
  Q 59.94 730.29 57.14 729.15
  C 52.52 727.26 53.26 722.64 56.06 719.61
  A 0.71 0.71 0.0 0 1 56.27 719.45
  L 60.76 717.14
  A 0.97 0.97 0.0 0 0 61.07 715.67
  Q 59.90 714.23 58.34 710.74
  C 56.72 707.13 59.79 705.20 62.53 703.52
  A 1.60 1.60 0.0 0 0 63.00 701.21
  L 60.66 697.99
  A 3.50 2.82 22.5 0 1 60.43 697.60
  L 57.56 691.36
  A 0.72 0.72 0.0 0 1 57.85 690.44
  L 62.60 687.70
  A 1.05 1.05 0.0 0 0 62.85 686.09
  C 59.39 682.29 57.39 678.23 60.56 673.61
  Q 62.90 670.19 63.07 669.58
  Q 64.22 665.26 62.83 661.86
  C 62.19 660.32 60.78 659.80 60.16 658.49
  A 1.29 1.27 50.4 0 1 60.27 657.19
  Q 63.23 653.05 62.05 647.07
  Q 61.91 646.39 63.21 642.05
  A 1.41 1.41 0.0 0 1 63.79 641.28
  L 68.54 638.17
  A 0.62 0.62 0.0 0 0 68.44 637.07
  C 65.48 635.87 59.59 634.23 61.73 630.25
  Q 62.89 628.09 65.87 627.55
  Q 77.07 625.52 83.89 623.32
  A 1.01 1.00 51.4 0 0 84.09 621.50
  Q 82.12 620.34 79.33 619.67
  Q 77.43 619.22 64.02 616.72
  Q 54.12 614.87 45.98 610.56
  C 44.01 609.51 43.91 607.34 44.33 605.09
  Q 45.05 601.27 43.48 598.74
  C 42.47 597.09 42.91 595.20 43.87 593.91
  A 2.85 2.76 -42.2 0 0 44.07 590.80
  Q 42.96 588.94 41.25 586.62
  C 39.24 583.91 35.68 581.82 32.89 579.64
  C 28.49 576.19 33.49 572.57 35.94 570.28
  A 0.32 0.32 0.0 0 0 35.88 569.78
  L 29.86 566.30
  A 2.96 2.95 -65.3 0 1 28.55 562.73
  L 29.87 559.03
  A 0.97 0.96 -8.5 0 1 30.22 558.56
  L 31.80 557.41
  A 1.12 1.11 32.4 0 0 31.35 555.42
  Q 30.44 555.24 24.03 554.00
  Q 22.01 553.61 21.72 552.08
  A 3.86 3.61 -24.2 0 1 23.27 548.37
  Q 25.51 546.76 29.02 544.63
  A 1.25 1.24 80.6 0 0 29.60 543.81
  Q 29.93 542.23 28.09 541.39
  Q 25.62 540.28 22.02 539.38
  A 1.13 1.12 22.6 0 1 21.32 537.70
  L 24.33 532.69
  A 2.29 2.15 -21.3 0 0 24.54 532.25
  L 26.00 527.74
  A 1.92 1.92 0.0 0 1 26.83 526.69
  Q 29.58 525.03 31.87 523.62
  C 35.56 521.33 32.37 519.48 30.95 517.46
  C 28.92 514.58 29.38 511.29 31.35 508.15
  C 33.61 504.54 33.92 500.80 32.56 496.86
  Q 31.70 494.34 31.82 493.24
  C 32.16 490.06 32.74 488.21 30.70 485.46
  Q 29.43 483.76 30.04 481.99
  Q 31.19 478.61 31.40 475.56
  C 31.78 470.11 33.63 465.60 36.15 461.19
  C 37.83 458.25 37.47 453.13 37.14 448.63
  A 4.27 4.25 58.0 0 1 37.69 446.22
  L 41.90 438.94
  A 0.61 0.60 46.4 0 0 41.91 438.35
  Q 40.40 435.52 40.84 431.76
  C 41.24 428.39 41.20 425.64 40.92 422.00
  Q 40.74 419.76 42.46 418.72
  Q 45.39 416.96 48.93 415.90
  Q 51.86 415.03 57.76 413.98
  Q 70.29 411.76 84.07 409.34
  A 1.85 1.84 -0.5 0 0 85.57 407.82
  L 85.58 407.77
  A 1.07 1.07 0.0 0 0 84.46 406.54
  Q 74.81 407.13 74.37 405.84
  Q 73.58 403.53 75.30 402.56
  Q 78.26 400.90 83.81 398.07
  A 4.26 4.19 1.1 0 0 85.54 396.43
  L 87.08 393.76
  A 0.45 0.45 0.0 0 0 86.77 393.09
  Q 83.87 392.55 82.86 393.06
  Q 75.31 396.88 67.80 393.78
  A 2.71 2.70 21.0 0 1 66.27 390.37
  Q 66.64 389.33 68.34 388.80
  Q 71.61 387.79 74.96 387.24
  A 0.83 0.82 50.1 0 0 75.10 385.65
  L 65.91 382.37
  A 1.36 1.35 -60.8 0 1 65.31 380.25
  Q 67.58 377.39 69.27 375.92
  C 70.89 374.52 71.68 372.16 69.98 370.59
  Q 66.94 367.76 64.03 365.87
  A 2.25 2.13 89.7 0 1 63.36 365.17
  Q 60.47 360.38 63.29 355.81
  C 64.39 354.02 66.07 353.09 67.24 351.93
  A 1.58 1.58 0.0 0 0 66.47 349.27
  L 60.27 347.92
  A 1.46 1.46 0.0 0 1 59.13 346.66
  Q 58.45 340.81 63.22 338.25
  Q 66.40 336.55 68.93 335.31
  A 0.79 0.78 -48.3 0 0 68.85 333.87
  L 63.63 332.01
  A 1.22 1.21 4.0 0 1 62.85 331.12
  C 62.36 328.82 63.33 328.22 65.53 327.80
  Q 79.79 325.07 88.33 323.35
  Q 92.09 322.59 94.77 321.48
  A 0.96 0.95 47.5 0 0 94.84 319.75
  Q 93.33 318.98 92.00 318.99
  Q 87.36 319.04 80.62 318.69
  A 2.86 2.84 86.0 0 1 77.97 316.37
  L 77.96 316.31
  A 1.98 1.97 -7.0 0 1 79.79 313.97
  Q 85.83 313.62 90.95 312.86
  C 99.94 311.52 106.29 311.26 115.19 310.72
  Q 115.91 310.68 118.84 309.31
  A 0.25 0.25 0.0 0 0 118.82 308.84
  Q 116.76 308.11 114.49 308.28
  Q 104.00 309.10 93.00 310.14
  Q 91.04 310.32 89.07 309.82
  A 0.79 0.78 37.2 0 1 88.87 308.38
  L 109.56 296.44
  A 0.39 0.39 0.0 0 0 109.47 295.73
  Q 107.87 295.29 106.73 295.37
  C 102.97 295.64 99.61 296.54 95.40 296.68
  Q 87.86 296.92 82.60 296.77
  C 77.91 296.63 72.21 297.95 68.17 297.31
  A 0.26 0.26 0.0 0 1 68.05 296.84
  C 71.21 294.50 78.14 293.43 82.68 292.72
  A 2.41 2.12 -9.8 0 0 84.74 290.17
  Q 84.71 290.03 83.94 289.54
  A 1.06 0.99 37.4 0 1 83.68 288.00
  Q 85.19 286.35 87.26 285.79
  Q 101.71 281.89 114.48 279.47
  A 0.47 0.47 0.0 0 0 114.66 278.62
  Q 113.46 277.78 112.24 277.94
  Q 90.70 280.80 69.71 279.15
  A 0.66 0.66 0.0 0 1 69.30 278.03
  C 70.71 276.64 73.92 276.43 77.30 275.81
  Q 82.59 274.84 86.48 271.44
  A 1.15 1.15 0.0 0 0 86.28 269.57
  Q 83.75 268.15 81.29 267.94
  C 74.77 267.37 69.01 266.80 63.74 263.65
  A 1.60 1.59 4.0 0 1 63.12 262.94
  C 61.86 260.06 64.49 258.66 66.35 257.20
  A 1.17 1.16 -19.8 0 0 66.78 256.30
  L 66.78 246.37
  A 2.07 2.04 31.1 0 0 66.53 245.39
  C 64.91 242.42 63.23 239.76 66.66 237.36
  C 71.71 233.84 77.57 232.57 84.29 231.12
  Q 85.00 230.96 87.29 229.30
  A 0.49 0.48 51.7 0 0 87.37 228.58
  Q 85.30 226.19 84.30 222.93
  A 1.91 1.90 -19.7 0 1 85.40 220.61
  Q 87.40 219.78 90.22 218.84
  C 93.00 217.91 92.88 217.17 93.95 214.69
  A 1.24 1.21 45.7 0 0 93.95 213.74
  Q 92.23 209.76 92.45 204.51
  A 4.00 3.99 -13.9 0 1 94.44 201.22
  L 100.07 197.96
  A 2.19 2.18 69.1 0 0 101.12 195.60
  Q 100.24 191.47 98.20 188.05
  C 97.12 186.23 99.07 181.67 99.97 179.60
  A 3.09 2.88 63.0 0 0 100.20 178.80
  Q 100.91 174.23 99.30 170.38
  A 2.45 2.41 36.9 0 1 99.12 169.20
  C 99.55 164.50 103.35 163.41 106.18 160.38
  A 0.42 0.42 0.0 0 0 106.02 159.69
  Q 105.40 159.47 103.18 157.69
  C 97.41 153.06 102.78 147.98 106.84 145.19
  A 2.02 2.02 0.0 0 0 106.63 141.73
  Q 104.43 140.59 102.82 138.33
  A 0.90 0.89 41.8 0 1 102.76 137.38
  C 106.02 131.34 113.97 126.99 120.80 124.31
  Q 130.79 120.38 140.49 118.26
  Q 184.64 108.58 226.51 103.08
  Q 257.43 99.02 258.82 98.80
  Q 276.63 96.09 291.13 94.63
  Q 310.19 92.70 324.75 91.02
  Q 350.11 88.09 361.10 86.98
  C 371.56 85.92 380.87 85.46 390.75 84.26
  C 393.98 83.87 399.43 84.04 403.07 83.53
  Q 409.04 82.71 426.01 81.93
  C 433.52 81.59 454.37 79.58 467.72 78.93
  Q 476.38 78.50 482.61 77.86
  C 489.62 77.15 495.96 77.19 502.18 76.52
  C 510.92 75.57 523.25 75.53 530.51 74.89
  C 542.05 73.88 558.87 73.84 570.94 72.93
  Q 583.91 71.96 589.10 72.04
  Q 593.43 72.11 612.00 71.12
  Q 624.46 70.45 639.51 70.16
  C 649.26 69.97 663.70 68.94 676.17 68.74
  C 700.90 68.35 717.60 67.24 740.28 66.85
  Q 757.13 66.57 776.18 65.47
  C 783.77 65.03 794.07 65.15 800.50 65.02
  Q 856.89 63.88 881.00 63.69
  Q 933.17 63.28 1013.75 63.37
  Q 1093.08 63.47 1128.51 64.47
  C 1148.60 65.04 1167.41 65.03 1185.16 65.73
  Q 1215.27 66.92 1223.50 67.00
  Q 1233.75 67.08 1241.00 67.57
  C 1252.87 68.36 1267.38 68.61 1277.35 68.77
  C 1291.12 68.98 1305.22 70.14 1319.26 70.40
  C 1329.18 70.59 1336.59 71.18 1350.24 71.79
  Q 1357.53 72.11 1361.27 72.11
  C 1367.40 72.11 1373.17 72.94 1379.58 73.24
  Q 1390.47 73.73 1395.96 73.91
  C 1403.30 74.14 1411.48 75.15 1420.09 75.43
  Q 1429.08 75.72 1436.40 76.21
  Q 1446.98 76.93 1447.29 76.94
  C 1458.19 77.18 1469.62 78.56 1479.91 78.92
  Q 1488.24 79.21 1494.58 79.95
  C 1500.45 80.64 1506.63 80.57 1514.14 81.13
  Q 1522.08 81.74 1553.18 83.83
  C 1560.97 84.36 1568.86 85.40 1576.42 85.90
  Q 1584.39 86.43 1602.75 88.50
  Q 1611.67 89.50 1645.26 92.76
  Q 1668.70 95.03 1687.69 97.69
  Q 1722.97 102.62 1737.35 104.56
  C 1757.56 107.29 1778.45 111.20 1799.26 115.22
  C 1815.48 118.35 1829.52 121.76 1843.24 129.26
  Q 1847.43 131.56 1851.19 136.13
  Q 1853.01 138.35 1851.09 139.75
  Q 1848.78 141.43 1845.72 142.93
  A 0.70 0.69 55.5 0 0 1845.52 144.02
  Q 1846.95 145.58 1849.06 147.06
  C 1852.26 149.30 1853.27 153.31 1851.43 156.48
  A 1.64 1.40 85.5 0 1 1851.22 156.77
  L 1848.46 159.52
  A 2.01 2.01 0.0 0 0 1848.79 162.63
  Q 1850.73 163.87 1852.01 165.61
  A 2.44 2.44 0.0 0 1 1852.48 167.11
  Q 1852.39 170.80 1851.96 173.27
  C 1851.03 178.56 1852.18 182.85 1854.05 187.35
  A 1.64 1.59 -48.5 0 1 1854.10 188.44
  Q 1852.77 192.89 1850.04 196.00
  A 0.79 0.79 0.0 0 0 1850.07 197.07
  Q 1852.05 199.12 1854.84 200.89
  Q 1859.73 204.00 1856.78 208.97
  Q 1854.82 212.26 1852.21 214.90
  A 0.93 0.93 0.0 0 0 1852.41 216.36
  L 1860.11 220.81
  A 1.27 1.27 0.0 0 1 1860.22 222.94
  L 1854.90 226.80
  A 1.40 1.40 0.0 0 0 1854.61 228.79
  Q 1855.60 230.09 1856.78 230.51
  Q 1863.74 233.00 1873.44 237.62
  A 2.42 2.41 21.9 0 1 1874.70 240.56
  Q 1873.83 243.22 1871.73 247.40
  Q 1871.04 248.78 1870.94 251.31
  C 1870.83 254.39 1874.73 258.68 1876.77 260.53
  A 1.29 1.29 0.0 0 1 1876.83 262.37
  Q 1875.01 264.28 1872.06 265.05
  Q 1871.40 265.23 1855.82 267.56
  Q 1854.11 267.81 1851.24 269.45
  A 0.29 0.29 0.0 0 1 1850.84 269.32
  Q 1850.81 269.26 1850.81 269.10
  A 0.08 0.07 -17.4 0 0 1850.69 269.04
  Q 1848.07 270.71 1847.66 270.84
  Q 1844.09 271.99 1842.01 273.46
  C 1838.61 275.86 1835.79 276.21 1832.43 276.92
  A 0.16 0.15 -22.2 0 0 1832.33 277.15
  L 1832.46 277.38
  A 0.45 0.44 71.4 0 0 1832.91 277.61
  L 1842.25 276.44
  A 0.01 0.01 0.0 0 1 1842.26 276.46
  Z
  M 1833.2248 279.3725
  A 0.42 0.11 -156.5 0 0 1833.5661 279.6409
  A 0.42 0.11 -156.5 0 0 1833.9952 279.7075
  A 0.42 0.11 -156.5 0 0 1833.6539 279.4391
  A 0.42 0.11 -156.5 0 0 1833.2248 279.3725
  Z
  M 1848.33 288.07
  A 0.13 0.13 0.0 0 0 1848.20 287.94
  A 0.13 0.13 0.0 0 0 1848.07 288.07
  A 0.13 0.13 0.0 0 0 1848.20 288.20
  A 0.13 0.13 0.0 0 0 1848.33 288.07
  Z"
/>
<path fill="#fefefe" d="
  M 750.75 442.75
  A 0.27 0.26 90.0 0 0 750.49 442.48
  Q 744.61 442.50 687.25 442.51
  C 681.66 442.51 676.13 442.14 672.33 439.15
  C 664.25 432.81 665.10 421.43 665.34 412.31
  Q 665.49 406.64 667.07 402.84
  Q 671.45 392.35 684.28 392.33
  Q 749.85 392.19 790.49 392.34
  Q 796.66 392.36 801.16 393.58
  Q 804.25 394.42 809.22 397.61
  A 4.08 3.87 84.7 0 1 810.11 398.39
  Q 815.69 405.00 815.70 413.31
  Q 815.85 516.97 815.74 539.50
  C 815.72 545.05 815.31 549.50 813.58 554.26
  Q 812.92 556.07 810.82 558.35
  Q 805.86 563.72 798.32 566.80
  C 794.20 568.49 788.83 571.16 785.12 572.54
  Q 757.01 583.00 734.29 586.26
  Q 684.90 593.36 635.88 584.60
  C 614.26 580.74 592.56 573.15 574.15 561.61
  Q 562.51 554.32 551.35 543.42
  C 548.15 540.30 546.25 537.47 543.36 534.26
  Q 541.99 532.74 540.24 530.34
  C 524.24 508.31 515.54 482.03 511.81 454.97
  Q 507.72 425.32 509.78 394.23
  C 511.08 374.72 514.42 356.32 520.66 337.85
  Q 522.93 331.11 528.85 318.83
  Q 533.03 310.13 542.22 297.73
  Q 544.82 294.21 547.01 291.95
  C 551.81 287.01 554.54 283.31 559.34 279.52
  C 562.85 276.74 566.01 273.73 569.84 271.18
  Q 580.66 264.01 582.69 262.93
  Q 599.96 253.84 613.71 249.50
  Q 640.31 241.11 672.50 238.96
  Q 674.65 238.82 686.34 238.46
  C 709.88 237.73 733.28 240.16 756.11 245.40
  Q 773.30 249.35 788.49 256.00
  Q 791.06 257.12 797.00 261.26
  C 808.46 269.23 807.90 276.47 802.27 288.28
  Q 800.24 292.53 796.17 297.40
  Q 790.45 304.25 782.81 306.00
  Q 778.43 307.00 772.09 305.17
  C 764.36 302.94 753.30 297.98 744.67 295.49
  Q 724.28 289.62 702.02 289.03
  C 679.20 288.43 657.24 290.55 636.60 298.06
  Q 600.41 311.22 586.40 346.89
  C 582.53 356.72 579.74 367.13 578.23 377.65
  Q 573.34 411.83 577.52 445.74
  C 580.87 472.83 591.01 500.89 613.96 517.81
  C 626.77 527.26 642.22 533.02 657.73 535.78
  Q 676.24 539.08 695.01 538.75
  C 713.28 538.42 729.13 536.52 746.57 531.60
  C 747.50 531.34 748.43 530.57 749.64 530.65
  A 1.04 1.04 0.0 0 0 750.75 529.61
  L 750.75 442.75
  Z"
/>
<path fill="#fefefe" d="
  M 962.50 292.26
  L 962.50 383.94
  A 0.82 0.82 0.0 0 0 963.32 384.76
  Q 1075.70 384.77 1091.75 384.75
  C 1100.07 384.74 1105.53 385.23 1110.52 391.41
  C 1115.47 397.53 1114.85 410.28 1114.17 418.49
  Q 1113.82 422.79 1111.68 426.92
  C 1107.91 434.25 1100.71 435.46 1092.50 435.47
  Q 1033.98 435.53 962.85 435.49
  A 0.33 0.33 0.0 0 0 962.52 435.82
  L 962.52 535.53
  A 0.49 0.48 90.0 0 0 963.00 536.02
  Q 1103.24 536.01 1110.50 536.02
  C 1131.04 536.04 1131.70 549.51 1131.28 566.21
  C 1131.05 574.89 1127.69 582.18 1119.49 585.38
  Q 1116.17 586.69 1105.42 586.69
  Q 941.16 586.71 922.13 586.69
  Q 915.60 586.69 909.33 584.67
  C 899.46 581.50 896.51 572.70 896.51 563.25
  Q 896.48 444.58 896.53 264.25
  C 896.54 260.39 897.08 254.70 899.15 251.21
  C 904.06 242.90 913.70 241.03 922.75 241.02
  Q 1012.49 240.96 1111.24 241.02
  Q 1116.54 241.03 1120.99 242.89
  Q 1122.17 243.38 1122.67 243.76
  Q 1125.42 245.84 1127.62 248.63
  A 3.54 3.42 15.7 0 1 1128.13 249.50
  C 1131.23 256.82 1130.88 263.99 1130.71 271.09
  C 1130.51 279.48 1128.28 286.84 1120.30 290.28
  Q 1116.85 291.77 1106.92 291.76
  Q 1021.88 291.70 963.02 291.74
  A 0.52 0.52 0.0 0 0 962.50 292.26
  Z"
/>
<path fill="#fefefe" d="
  M 1266.76 292.09
  A 0.34 0.34 0.0 0 0 1266.42 291.75
  Q 1217.84 291.62 1172.00 291.74
  Q 1166.13 291.76 1162.46 290.32
  C 1150.45 285.63 1151.84 271.30 1152.04 260.74
  C 1152.28 248.60 1158.05 241.44 1170.53 241.03
  Q 1172.14 240.98 1423.00 240.97
  C 1427.76 240.97 1433.93 241.24 1437.81 243.73
  C 1446.58 249.35 1446.37 260.98 1445.91 270.76
  C 1445.50 279.40 1443.41 287.43 1434.49 290.58
  Q 1431.17 291.75 1422.69 291.74
  Q 1421.06 291.74 1333.44 291.72
  A 0.69 0.68 0.0 0 0 1332.75 292.40
  Q 1332.74 514.19 1332.75 569.00
  C 1332.75 584.49 1316.16 587.49 1303.64 587.51
  C 1290.96 587.54 1276.66 588.59 1268.56 576.97
  C 1267.29 575.15 1266.79 570.39 1266.79 567.87
  Q 1266.73 369.74 1266.76 292.09
  Z"
/>
</svg>
