<?xml version="1.0" encoding="UTF-8" standalone="no"?>
<!DOCTYPE svg PUBLIC "-//W3C//DTD SVG 1.1//EN" "http://www.w3.org/Graphics/SVG/1.1/DTD/svg11.dtd">
<svg xmlns="http://www.w3.org/2000/svg" stroke-width="8" stroke-linejoin="round" stroke-linecap="round" version="1.1" viewBox="280.00 310.00 470.00 420.00">
<path fill="#4285F4" stroke="#4285F4" d="
  M 729.95 515.24
  L 697.20 515.21
  L 696.87 355.87
  A 1.78 1.78 0.0 0 0 695.09 354.10
  L 513.00 354.04
  Q 512.97 342.26 513.14 330.75
  Q 513.21 326.17 512.40 321.73
  Q 515.08 321.59 518.25 321.60
  Q 621.01 321.88 723.75 321.69
  Q 730.45 321.68 730.39 328.50
  Q 730.22 350.76 730.07 514.38
  Q 730.07 514.79 729.95 515.24
  Z"
/>
<path fill="#EA4335" stroke="#EA4335" d="
  M 729.95 515.24
  Q 730.02 515.46 730.02 515.74
  Q 729.86 602.58 729.96 719.42
  C 729.97 722.44 729.03 724.67 726.49 725.74
  Q 725.28 726.25 722.25 726.25
  Q 617.63 726.13 513.00 726.11
  Q 512.25 726.23 511.82 725.97
  Q 511.42 725.73 511.40 724.90
  Q 510.96 709.07 511.65 692.91
  Q 514.89 692.91 518.03 692.89
  Q 620.97 692.10 684.26 692.47
  Q 691.56 692.52 695.18 692.62
  Q 697.52 692.69 697.43 689.73
  Q 697.18 681.96 697.17 677.00
  Q 697.09 596.19 697.20 515.21
  L 729.95 515.24
  Z"
/>
<path fill="#FBBC05" d="
  M 327.98 516.01
  L 327.56 691.37
  A 1.50 1.50 0.0 0 0 329.06 692.87
  L 511.65 692.91
  Q 510.96 709.07 511.40 724.90
  Q 511.42 725.73 511.82 725.97
  Q 512.25 726.23 513.00 726.11
  C 508.16 726.88 504.09 726.51 495.75 726.49
  Q 402.58 726.34 309.40 726.14
  C 306.36 726.14 302.36 726.65 298.78 726.19
  C 295.14 725.72 294.38 721.36 294.37 718.19
  Q 294.02 616.96 294.10 515.73
  L 294.19 517.15
  A 0.27 0.27 0.0 0 0 294.70 517.24
  Q 294.81 517.02 294.76 516.73
  A 0.65 0.65 0.0 0 1 295.40 515.98
  L 327.98 516.01
  Z"
/>
<path fill="#34A853" d="
  M 480.79 321.87
  L 484.73 321.87
  L 485.96 321.87
  L 487.72 321.86
  L 512.40 321.73
  Q 513.21 326.17 513.14 330.75
  Q 512.97 342.26 513.00 354.04
  Q 422.29 354.14 331.50 354.10
  Q 328.22 354.10 328.32 357.22
  C 328.46 361.59 328.05 368.05 328.06 371.26
  Q 328.19 443.67 327.98 516.01
  L 295.40 515.98
  A 0.65 0.65 0.0 0 0 294.76 516.73
  Q 294.81 517.02 294.70 517.24
  A 0.27 0.27 0.0 0 1 294.19 517.15
  L 294.10 515.73
  Q 294.25 423.55 294.13 331.37
  Q 294.13 326.54 295.11 324.79
  Q 296.75 321.88 300.81 321.89
  Q 390.81 322.00 480.79 321.87
  Z"
/>

<path fill="#FBBC05" d="
  M 644.12 515.23
  L 610.90 515.20
  L 611.10 423.85
  A 1.72 1.72 0.0 0 0 609.38 422.13
  L 512.88 421.95
  L 512.97 388.58
  Q 574.95 389.12 636.97 388.84
  C 639.22 388.83 641.10 389.12 642.85 390.11
  A 2.80 2.79 -75.4 0 1 644.28 392.55
  L 644.12 515.23
  Z"
/>
<path fill="#34A853" d="
  M 644.12 515.23
  L 644.14 532.47
  L 644.13 533.46
  Q 643.94 591.48 644.04 649.50
  Q 644.05 654.29 639.75 655.11
  L 633.32 655.15
  L 533.22 655.12
  L 528.77 655.12
  L 519.96 655.14
  L 512.75 655.13
  A 1.72 1.71 -0.0 0 1 511.03 653.42
  L 511.00 621.97
  L 609.04 622.36
  A 1.41 1.41 0.0 0 0 610.46 621.02
  L 610.65 617.48
  L 610.66 615.54
  L 610.81 573.03
  L 610.91 522.58
  L 610.90 515.20
  L 644.12 515.23
  Z"
/>

<path fill="#4285F4" d="
  M 413.20 515.85
  L 413.20 620.62
  A 1.33 1.33 0.0 0 0 414.53 621.95
  L 511.00 621.97
  L 511.03 653.42
  A 1.72 1.71 0.0 0 0 512.75 655.13
  L 519.96 655.14
  Q 513.98 655.41 508.00 655.43
  Q 432.62 655.61 386.29 655.65
  Q 383.16 655.65 381.78 653.21
  Q 380.93 651.69 380.91 647.93
  Q 380.59 583.01 380.54 525.75
  Q 380.53 520.95 380.38 515.88
  L 413.20 515.85
  Z"
/>
<path fill="#EA4335" d="
  M 512.97 388.58
  L 512.88 421.95
  L 495.27 421.85
  L 474.52 421.80
  L 414.70 421.69
  A 1.07 1.06 0.0 0 0 413.63 422.75
  L 413.20 515.85
  L 380.38 515.88
  Q 380.30 456.73 380.05 397.30
  Q 380.03 392.85 381.30 391.02
  Q 383.14 388.38 387.00 388.41
  Q 466.31 389.06 512.97 388.58
  Z"
/>

</svg>
