<?xml version="1.0" encoding="UTF-8" standalone="no"?>
<!DOCTYPE svg PUBLIC "-//W3C//DTD SVG 1.1//EN" "http://www.w3.org/Graphics/SVG/1.1/DTD/svg11.dtd">
<svg xmlns="http://www.w3.org/2000/svg" version="1.1" viewBox="312.00 333.00 411.00 334.00">
<path fill="#17b978" d="
  M 495.24 333.89
  L 513.18 333.88
  L 546.23 333.92
  A 3.42 3.40 -13.6 0 1 549.26 335.76
  L 577.97 391.11
  Q 568.86 408.75 560.86 426.69
  Q 553.74 442.63 542.07 455.56
  L 480.70 335.37
  A 1.17 1.17 0.0 0 1 481.76 333.67
  L 495.24 333.89
  Z"
/>
<path fill="#086972" d="
  M 513.18 333.88
  L 495.24 333.89
  L 513.18 333.88
  Z"
/>
<path fill="#17b978" d="
  M 577.97 391.11
  L 633.03 495.80
  Q 626.83 507.58 622.01 519.99
  Q 611.37 547.38 603.21 576.26
  L 542.07 455.56
  Q 553.74 442.63 560.86 426.69
  Q 568.86 408.75 577.97 391.11
  Z"
/>
<path fill="#071a52" d="
  M 458.24 518.48
  Q 448.78 499.25 443.56 481.57
  Q 436.74 458.47 440.66 433.62
  Q 441.94 425.47 443.43 417.11
  L 453.18 398.55
  A 1.43 1.43 0.0 0 1 455.72 398.56
  L 486.78 458.67
  A 4.06 4.05 -45.2 0 1 486.79 462.38
  L 458.24 518.48
  Z"
/>
<path fill="#071a52" d="
  M 443.43 417.11
  Q 441.94 425.47 440.66 433.62
  Q 436.74 458.47 443.56 481.57
  Q 448.78 499.25 458.24 518.48
  L 433.51 567.44
  A 1.08 1.08 0.0 0 0 434.48 569.01
  L 471.71 568.89
  L 490.21 568.87
  A 0.22 0.21 90.0 0 1 490.42 569.09
  L 490.42 569.10
  A 0.26 0.26 0.0 0 1 490.16 569.37
  L 483.41 569.35
  A 0.45 0.44 81.3 0 0 482.99 569.93
  C 489.73 591.03 504.29 610.12 520.80 624.50
  Q 534.46 636.42 551.74 630.11
  Q 562.31 626.25 575.44 617.86
  L 602.79 664.87
  A 0.84 0.84 0.0 0 1 602.07 666.13
  L 545.39 666.13
  A 3.42 3.40 -13.5 0 1 542.35 664.28
  L 522.88 626.62
  A 1.25 1.25 0.0 0 0 521.77 625.94
  L 423.80 625.95
  C 417.45 608.26 409.87 591.11 402.65 573.77
  Q 395.72 557.13 385.38 528.10
  L 443.43 417.11
  Z"
/>
<path fill="#17b978" d="
  M 603.21 576.26
  Q 611.37 547.38 622.01 519.99
  Q 626.83 507.58 633.03 495.80
  Q 672.82 572.03 712.55 648.34
  C 715.80 654.58 718.95 658.97 720.87 664.48
  A 1.19 1.19 0.0 0 1 719.74 666.06
  Q 691.58 665.91 652.73 666.11
  Q 648.83 666.13 647.40 663.04
  Q 644.47 656.71 639.64 647.31
  Q 618.92 606.93 604.23 578.07
  Q 603.66 576.94 603.21 576.26
  Z"
/>
<path fill="#071a52" d="
  M 385.38 528.10
  Q 395.72 557.13 402.65 573.77
  C 409.87 591.11 417.45 608.26 423.80 625.95
  L 403.62 625.72
  A 2.26 2.26 0.0 0 0 401.56 626.98
  L 383.03 664.68
  A 2.47 2.47 0.0 0 1 380.82 666.05
  L 315.07 666.01
  A 1.33 1.33 0.0 0 1 313.74 664.70
  C 313.72 662.06 317.91 656.19 319.07 654.01
  Q 330.17 633.08 332.22 629.17
  Q 371.76 553.92 371.89 553.66
  Q 378.50 540.93 385.38 528.10
  Z"
/>
<path fill="#071a52" d="
  M 575.44 617.86
  Q 562.31 626.25 551.74 630.11
  Q 534.46 636.42 520.80 624.50
  C 504.29 610.12 489.73 591.03 482.99 569.93
  A 0.45 0.44 81.3 0 1 483.41 569.35
  L 490.16 569.37
  A 0.26 0.26 0.0 0 0 490.42 569.10
  L 490.42 569.09
  A 0.22 0.21 90.0 0 0 490.21 568.87
  L 471.71 568.89
  Q 507.23 568.66 542.75 568.64
  Q 546.57 568.63 548.25 571.55
  Q 561.75 594.91 575.44 617.86
  Z"
/>
</svg>
