<?xml version="1.0" standalone="no"?><!DOCTYPE svg PUBLIC "-//W3C//DTD SVG 1.1//EN" "http://www.w3.org/Graphics/SVG/1.1/DTD/svg11.dtd"><svg t="1741137871194" class="icon" viewBox="0 0 1024 1024" version="1.1" xmlns="http://www.w3.org/2000/svg" p-id="19258" xmlns:xlink="http://www.w3.org/1999/xlink" width="256" height="256"><path d="M66.902803 9.440067l3.836732 3.410429 898.775876 898.775876a40.839885 40.839885 0 0 1-53.927405 61.174566l-3.836732-3.410429-191.325055-191.325055c-58.10518 56.485227-134.498785 110.625784-229.180815 162.421671-245.124569-134.115112-367.686853-283.918196-367.686853-449.366623V193.688482c0-3.666211 0.511564-7.375052 1.534693-10.913372L12.932767 70.614633A40.839885 40.839885 0 0 1 66.902803 9.397437z m138.378148 253.52275V491.120502l0.255782 12.149653c2.984125 60.44985 28.306559 117.659793 73.153697 172.567696 49.152805 59.980916 120.345506 116.508773 212.554974 170.734591 69.146444-40.626733 126.399017-82.489746 171.416677-126.185865L205.238321 262.920186z" fill="#bfbfbf" fill-opacity=".498" p-id="19259"></path><path d="M491.245404 41.711249l339.763968 113.268866c16.668471 5.541947 27.922886 21.187289 27.922886 38.793628V491.120502c0 29.201796-3.879363 58.318332-11.552828 86.497-12.021761 44.335574-92.635772 31.034902-78.22671-23.873001a245.124569 245.124569 0 0 0 7.758726-50.474346l0.298412-12.149653V223.188691L491.245404 127.909837l-127.464775 42.459838a40.839885 40.839885 0 0 1-49.74963-21.059398l-1.960997-4.7746a40.456211 40.456211 0 0 1 20.718355-49.621739l4.7746-1.918366L491.245404 41.711249z" fill="#bfbfbf" p-id="19260"></path></svg>