<svg width="30" height="30" viewBox="0 0 30 30" fill="none" xmlns="http://www.w3.org/2000/svg">
<circle cx="15" cy="15" r="15" transform="rotate(90 15 15)" fill="#9D9DA0"/>
<path d="M8.33333 23.3333V8.33333C8.33333 8.20396 8.36345 8.07637 8.42131 7.96066C8.47916 7.84494 8.56316 7.74429 8.66666 7.66667C9.53214 7.01756 10.5848 6.66667 11.6667 6.66667C14.1667 6.66667 15.8333 8.33333 17.7775 8.33333C18.8886 8.33333 19.7405 8.11111 20.3333 7.66667C20.4571 7.57381 20.6044 7.51727 20.7585 7.50337C20.9126 7.48947 21.0676 7.51877 21.206 7.58798C21.3444 7.65719 21.4608 7.76358 21.5422 7.89522C21.6236 8.02687 21.6667 8.17857 21.6667 8.33333V16.6667C21.6667 16.796 21.6365 16.9236 21.5787 17.0393C21.5208 17.1551 21.4368 17.2557 21.3333 17.3333C20.4678 17.9824 19.4152 18.3333 18.3333 18.3333C15.8333 18.3333 14.1667 16.6667 11.6667 16.6667C10.4368 16.6667 9.25002 17.12 8.33333 17.94" fill="white"/>
<path d="M8.33333 23.3333V8.33333C8.33333 8.20396 8.36345 8.07637 8.42131 7.96066C8.47916 7.84494 8.56316 7.74429 8.66666 7.66667C9.53214 7.01756 10.5848 6.66667 11.6667 6.66667C14.1667 6.66667 15.8333 8.33333 17.7775 8.33333C18.8886 8.33333 19.7405 8.11111 20.3333 7.66667C20.4571 7.57381 20.6044 7.51727 20.7585 7.50337C20.9126 7.48947 21.0676 7.51877 21.206 7.58798C21.3444 7.65719 21.4608 7.76358 21.5422 7.89522C21.6236 8.02687 21.6667 8.17857 21.6667 8.33333V16.6667C21.6667 16.796 21.6365 16.9236 21.5787 17.0393C21.5208 17.1551 21.4368 17.2557 21.3333 17.3333C20.4678 17.9824 19.4152 18.3333 18.3333 18.3333C15.8333 18.3333 14.1667 16.6667 11.6667 16.6667C10.4368 16.6667 9.25002 17.12 8.33333 17.94" stroke="white" stroke-width="3" stroke-linecap="round" stroke-linejoin="round"/>
</svg>
