<svg width="410" height="410" xmlns="http://www.w3.org/2000/svg" style="vector-effect: non-scaling-stroke;" stroke="null" version="1.1">
 <g stroke="null">
  <title stroke="null">Layer 1</title>
  <g id="svg_21">
   <path stroke="null" fill="#000000" d="m145.17851,191.52388q-9.46,-19.23 -14.68,-36.91q-6.82,-23.1 -2.9,-47.95q1.28,-8.15 2.77,-16.51l9.75,-18.56a1.43,1.43 0 0 1 2.54,0.01l31.06,60.11a4.06,4.05 -45.2 0 1 0.01,3.71l-28.55,56.1z" id="svg_4"/>
   <path stroke="null" fill="#000000" d="m130.36851,90.15388q-1.49,8.36 -2.77,16.51q-3.92,24.85 2.9,47.95q5.22,17.68 14.68,36.91l-24.73,48.96a1.08,1.08 0 0 0 0.97,1.57l37.23,-0.12l18.5,-0.02a0.22,0.21 90 0 1 0.21,0.22l0,0.01a0.26,0.26 0 0 1 -0.26,0.27l-6.75,-0.02a0.45,0.44 81.3 0 0 -0.42,0.58c6.74,21.1 21.3,40.19 37.81,54.57q13.66,11.92 30.94,5.61q10.57,-3.86 23.7,-12.25l27.35,47.01a0.84,0.84 0 0 1 -0.72,1.26l-56.68,0a3.42,3.4 -13.5 0 1 -3.04,-1.85l-19.47,-37.66a1.25,1.25 0 0 0 -1.11,-0.68l-97.97,0.01c-6.35,-17.69 -13.93,-34.84 -21.15,-52.18q-6.93,-16.64 -17.27,-45.67l58.05,-110.99z" id="svg_5"/>
   <path stroke="null" fill="#000000" d="m72.31851,201.14388q10.34,29.03 17.27,45.67c7.22,17.34 14.8,34.49 21.15,52.18l-20.18,-0.23a2.26,2.26 0 0 0 -2.06,1.26l-18.53,37.7a2.47,2.47 0 0 1 -2.21,1.37l-65.75,-0.04a1.33,1.33 0 0 1 -1.33,-1.31c-0.02,-2.64 4.17,-8.51 5.33,-10.69q11.1,-20.93 13.15,-24.84q39.54,-75.25 39.67,-75.51q6.61,-12.73 13.49,-25.56z" id="svg_7"/>
   <path stroke="null" fill="#000000" d="m262.37851,290.90388q-13.13,8.39 -23.7,12.25q-17.28,6.31 -30.94,-5.61c-16.51,-14.38 -31.07,-33.47 -37.81,-54.57a0.45,0.44 81.3 0 1 0.42,-0.58l6.75,0.02a0.26,0.26 0 0 0 0.26,-0.27l0,-0.01a0.22,0.21 90 0 0 -0.21,-0.22l-18.5,0.02q35.52,-0.23 71.04,-0.25q3.82,-0.01 5.5,2.91q13.5,23.36 27.19,46.31z" id="svg_8"/>
   <path stroke="null" fill="#17b978" d="m264.65902,191.52387q-9.46,-19.23 -14.68,-36.91q-6.82,-23.1 -2.9,-47.95q1.28,-8.15 2.77,-16.51l9.75,-18.56a1.43,1.43 0 0 1 2.54,0.01l31.06,60.11a4.06,4.05 -45.2 0 1 0.01,3.71l-28.55,56.1z" id="svg_12"/>
   <path stroke="null" fill="#17b978" d="m249.84902,90.15387q-1.49,8.36 -2.77,16.51q-3.92,24.85 2.9,47.95q5.22,17.68 14.68,36.91l-24.73,48.96a1.08,1.08 0 0 0 0.97,1.57l37.23,-0.12l18.5,-0.02a0.22,0.21 90 0 1 0.21,0.22l0,0.01a0.26,0.26 0 0 1 -0.26,0.27l-6.75,-0.02a0.45,0.44 81.3 0 0 -0.42,0.58c6.74,21.1 21.3,40.19 37.81,54.57q13.66,11.92 30.94,5.61q10.57,-3.86 23.7,-12.25l27.35,47.01a0.84,0.84 0 0 1 -0.72,1.26l-56.68,0a3.42,3.4 -13.5 0 1 -3.04,-1.85l-19.47,-37.66a1.25,1.25 0 0 0 -1.11,-0.68l-97.97,0.01c-6.35,-17.69 -13.93,-34.84 -21.15,-52.18q-6.93,-16.64 -17.27,-45.67l58.05,-110.99z" id="svg_13"/>
   <path stroke="null" fill="#17b978" d="m191.79902,201.14387q10.34,29.03 17.27,45.67c7.22,17.34 14.8,34.49 21.15,52.18l-20.18,-0.23a2.26,2.26 0 0 0 -2.06,1.26l-18.53,37.7a2.47,2.47 0 0 1 -2.21,1.37l-65.75,-0.04a1.33,1.33 0 0 1 -1.33,-1.31c-0.02,-2.64 4.17,-8.51 5.33,-10.69q11.1,-20.93 13.15,-24.84q39.54,-75.25 39.67,-75.51q6.61,-12.73 13.49,-25.56z" id="svg_14"/>
   <path stroke="null" fill="#17b978" d="m381.85902,290.90387q-13.13,8.39 -23.7,12.25q-17.28,6.31 -30.94,-5.61c-16.51,-14.38 -31.07,-33.47 -37.81,-54.57a0.45,0.44 81.3 0 1 0.42,-0.58l6.75,0.02a0.26,0.26 0 0 0 0.26,-0.27l0,-0.01a0.22,0.21 90 0 0 -0.21,-0.22l-18.5,0.02q35.52,-0.23 71.04,-0.25q3.82,-0.01 5.5,2.91q13.5,23.36 27.19,46.31z" id="svg_15"/>
  </g>
 </g>

</svg>