<svg width="30" height="30" viewBox="0 0 30 30" fill="none" xmlns="http://www.w3.org/2000/svg">
<circle cx="15" cy="15" r="14.5" fill="white" stroke="#5BBD82"/>
<path d="M15 0C17.4668 2.94159e-08 19.8955 0.608356 22.071 1.77118C24.2464 2.93401 26.1016 4.61541 27.472 6.66645C28.8425 8.71749 29.686 11.0749 29.9278 13.5297C30.1696 15.9846 29.8022 18.4613 28.8582 20.7402C27.9142 23.0192 26.4227 25.0303 24.5159 26.5952C22.6091 28.1601 20.3457 29.2305 17.9264 29.7118C15.507 30.193 13.0063 30.0702 10.6457 29.3541C8.28519 28.638 6.13767 27.3509 4.3934 25.6066L15 15L15 0Z" fill="#5BBD82"/>
</svg>
