<svg width="30" height="30" viewBox="0 0 30 30" fill="none" xmlns="http://www.w3.org/2000/svg">
<circle cx="15" cy="15" r="14.5" fill="white" stroke="#5BBD82"/>
<path d="M15 0C18.2998 3.93496e-08 21.5075 1.0881 24.1263 3.09575C26.7451 5.1034 28.6287 7.91857 29.4856 11.1052C30.3424 14.2918 30.1245 17.672 28.8657 20.7223C27.6068 23.7725 25.3773 26.3225 22.5225 27.9774C19.6677 29.6322 16.3468 30.2995 13.0743 29.8759C9.80183 29.4522 6.76035 27.9613 4.421 25.6341C2.08164 23.3069 0.57497 20.2732 0.134355 17.0029C-0.30626 13.7327 0.343775 10.4084 1.98377 7.545L15 15L15 0Z" fill="#5BBD82"/>
</svg>
