<svg width="30" height="30" viewBox="0 0 30 30" fill="none" xmlns="http://www.w3.org/2000/svg">
<circle cx="15" cy="15" r="15" transform="rotate(90 15 15)" fill="#654DC6"/>
<path d="M11 17C11 18.0609 11.4214 19.0783 12.1716 19.8284C12.9217 20.5786 13.9391 21 15 21C16.0609 21 17.0783 20.5786 17.8284 19.8284C18.5786 19.0783 19 18.0609 19 17V16C19 14.9391 18.5786 13.9217 17.8284 13.1716C17.0783 12.4214 16.0609 12 15 12C13.9391 12 12.9217 12.4214 12.1716 13.1716C11.4214 13.9217 11 14.9391 11 16" stroke="white" stroke-width="2" stroke-linecap="round" stroke-linejoin="round"/>
<path d="M19 9C19 7.93913 18.5786 6.92172 17.8284 6.17157C17.0783 5.42143 16.0609 5 15 5C13.9391 5 12.9217 5.42143 12.1716 6.17157C11.4214 6.92172 11 7.93913 11 9V17" stroke="white" stroke-width="2" stroke-linecap="round" stroke-linejoin="round"/>
</svg>
