<svg width="30" height="30" viewBox="0 0 30 30" fill="none" xmlns="http://www.w3.org/2000/svg">
<circle cx="15" cy="15" r="15" transform="rotate(90 15 15)" fill="#EAC943"/>
<path d="M15 15C15.7911 15 16.5645 14.7654 17.2223 14.3259C17.8801 13.8864 18.3928 13.2616 18.6955 12.5307C18.9983 11.7998 19.0775 10.9956 18.9231 10.2196C18.7688 9.44372 18.3878 8.73098 17.8284 8.17157C17.269 7.61216 16.5563 7.2312 15.7804 7.07686C15.0044 6.92252 14.2002 7.00173 13.4693 7.30448C12.7384 7.60723 12.1136 8.11992 11.6741 8.77772C11.2346 9.43552 11 10.2089 11 11" stroke="white" stroke-width="2" stroke-linecap="round" stroke-linejoin="round"/>
<path d="M11 19C11 19.7911 11.2346 20.5645 11.6741 21.2223C12.1136 21.8801 12.7384 22.3928 13.4693 22.6955C14.2002 22.9983 15.0044 23.0775 15.7804 22.9231C16.5563 22.7688 17.269 22.3878 17.8284 21.8284C18.3878 21.269 18.7688 20.5563 18.9231 19.7804C19.0775 19.0044 18.9983 18.2002 18.6955 17.4693C18.3928 16.7384 17.8801 16.1136 17.2223 15.6741C16.5645 15.2346 15.7911 15 15 15" stroke="white" stroke-width="2" stroke-linecap="round" stroke-linejoin="round"/>
</svg>
