<svg width="30" height="30" viewBox="0 0 30 30" fill="none" xmlns="http://www.w3.org/2000/svg">
<circle cx="15" cy="15" r="15" transform="rotate(90 15 15)" fill="#5BBD82"/>
<g clip-path="url(#clip0_35_266)">
<path d="M14.6042 6.9125C14.6407 6.83872 14.6971 6.77661 14.767 6.73319C14.837 6.68976 14.9177 6.66676 15 6.66676C15.0823 6.66676 15.163 6.68976 15.233 6.73319C15.3029 6.77661 15.3593 6.83872 15.3958 6.9125L17.3208 10.8117C17.4476 11.0683 17.6348 11.2903 17.8664 11.4587C18.0979 11.6271 18.3668 11.7368 18.65 11.7783L22.955 12.4083C23.0366 12.4202 23.1132 12.4546 23.1762 12.5077C23.2393 12.5608 23.2862 12.6305 23.3117 12.7088C23.3372 12.7872 23.3402 12.8712 23.3205 12.9512C23.3008 13.0312 23.259 13.1041 23.2 13.1617L20.0867 16.1933C19.8813 16.3934 19.7277 16.6404 19.639 16.913C19.5503 17.1856 19.5292 17.4757 19.5775 17.7583L20.3125 22.0417C20.3269 22.1232 20.3181 22.2071 20.2871 22.2839C20.2561 22.3607 20.2041 22.4272 20.1371 22.4758C20.0701 22.5245 19.9908 22.5533 19.9082 22.5591C19.8256 22.5648 19.7431 22.5472 19.67 22.5083L15.8217 20.485C15.5681 20.3519 15.286 20.2823 14.9996 20.2823C14.7132 20.2823 14.4311 20.3519 14.1775 20.485L10.33 22.5083C10.2569 22.547 10.1745 22.5644 10.092 22.5585C10.0096 22.5527 9.93043 22.5238 9.86358 22.4752C9.79673 22.4266 9.74486 22.3602 9.71388 22.2835C9.6829 22.2069 9.67405 22.1231 9.68834 22.0417L10.4225 17.7592C10.471 17.4764 10.45 17.1862 10.3613 16.9134C10.2726 16.6406 10.1188 16.3935 9.91334 16.1933L6.8 13.1625C6.7405 13.105 6.69833 13.032 6.6783 12.9517C6.65828 12.8715 6.6612 12.7872 6.68673 12.7085C6.71227 12.6298 6.75939 12.5599 6.82273 12.5067C6.88607 12.4534 6.96309 12.4191 7.045 12.4075L11.3492 11.7783C11.6327 11.7371 11.902 11.6275 12.1338 11.4592C12.3657 11.2908 12.5531 11.0686 12.68 10.8117L14.6042 6.9125Z" fill="white" stroke="white" stroke-width="3" stroke-linecap="round" stroke-linejoin="round"/>
</g>
<defs>
<clipPath id="clip0_35_266">
<rect width="20" height="20" fill="white" transform="translate(5 5)"/>
</clipPath>
</defs>
</svg>
